<?xml version="1.0" standalone="no"?>
<!DOCTYPE svg PUBLIC "-//W3C//DTD SVG 20010904//EN"
 "http://www.w3.org/TR/2001/REC-SVG-20010904/DTD/svg10.dtd">
<svg version="1.0" xmlns="http://www.w3.org/2000/svg"
 width="832.000000pt" height="832.000000pt" viewBox="0 0 832.000000 832.000000"
 preserveAspectRatio="xMidYMid meet">
<metadata>
Created by potrace 1.14, written by Peter Selinger 2001-2017
</metadata>
<g transform="translate(0.000000,832.000000) scale(0.100000,-0.100000)"
fill="#000000" stroke="none">
<path d="M3925 8141 c-88 -43 -502 -243 -920 -444 -418 -201 -1068 -514 -1444
-695 -685 -329 -731 -355 -765 -420 -8 -15 -73 -286 -145 -602 -72 -316 -227
-1002 -346 -1525 -118 -522 -236 -1038 -260 -1146 -51 -224 -55 -276 -22 -340
19 -38 2131 -2687 2226 -2793 20 -21 54 -47 76 -57 38 -18 120 -19 1829 -19
1357 0 1798 3 1829 12 21 6 59 30 82 52 65 62 2214 2772 2236 2820 10 22 19
54 19 70 0 25 -154 708 -591 2631 -44 193 -107 469 -140 615 -65 286 -78 320
-147 364 -20 14 -752 370 -1625 791 l-1588 765 -72 -1 c-69 -1 -79 -4 -232
-78z m430 -378 c50 -23 239 -113 420 -201 306 -148 775 -374 1830 -882 231
-111 441 -217 466 -236 50 -37 109 -115 133 -179 9 -22 36 -128 60 -235 25
-107 67 -294 95 -415 28 -121 158 -693 291 -1272 153 -671 240 -1071 240
-1105 0 -72 -24 -163 -58 -218 -16 -25 -352 -450 -747 -945 -395 -495 -814
-1019 -930 -1165 -116 -146 -229 -280 -250 -299 -22 -19 -69 -48 -105 -65
l-65 -31 -1575 0 -1575 0 -58 23 c-32 13 -77 38 -100 56 -44 33 -1917 2367
-1957 2438 -30 53 -50 131 -50 195 0 28 14 112 30 185 72 314 106 462 220 963
351 1539 424 1855 442 1903 13 35 41 76 81 118 53 58 76 73 196 131 75 36 312
150 526 253 470 226 793 382 1525 735 305 147 573 274 595 281 26 9 74 13 135
11 87 -3 103 -7 185 -44z"/>
<path d="M3955 7460 c-88 -42 -405 -196 -705 -340 -300 -145 -833 -402 -1185
-572 -402 -193 -651 -319 -669 -337 -27 -27 -39 -73 -192 -737 -552 -2389
-518 -2233 -505 -2272 16 -53 1859 -2359 1909 -2389 l37 -23 1515 0 c1454 0
1516 1 1545 19 29 18 1863 2303 1898 2364 30 55 73 -150 -388 1841 -146 632
-272 1160 -281 1175 -9 14 -25 33 -37 42 -12 9 -251 126 -532 261 -280 135
-769 371 -1085 523 -1092 527 -1088 525 -1128 524 -24 0 -91 -27 -197 -79z
m374 -911 c350 -25 659 -108 963 -259 872 -433 1418 -1315 1418 -2285 0 -415
-82 -765 -266 -1141 -199 -405 -543 -786 -930 -1029 -686 -431 -1555 -510
-2304 -210 -767 308 -1341 966 -1534 1757 -59 242 -70 343 -70 618 0 275 11
376 70 618 110 450 340 857 674 1192 444 444 1047 712 1675 743 132 7 165 6
304 -4z"/>
<path d="M4286 6298 c-14 -20 -16 -96 -16 -631 0 -420 3 -615 11 -629 10 -19
17 -20 122 -14 351 21 833 100 868 142 16 20 -32 151 -132 354 -206 420 -479
698 -768 784 -69 20 -67 20 -85 -6z"/>
<path d="M3960 6303 c-182 -65 -299 -139 -430 -272 -160 -160 -281 -342 -390
-581 -88 -194 -114 -268 -100 -285 32 -38 480 -113 810 -136 164 -11 164 -11
182 11 17 21 18 61 18 627 0 397 -4 611 -10 624 -10 19 -46 24 -80 12z"/>
<path d="M5082 6108 c-22 -22 -12 -46 63 -153 130 -186 235 -386 318 -606 34
-90 48 -115 64 -117 27 -4 171 54 314 127 160 81 160 78 -8 251 -194 201 -393
350 -609 459 -108 54 -123 58 -142 39z"/>
<path d="M2170 5209 c-71 -99 -190 -364 -242 -539 -55 -189 -103 -495 -81
-528 9 -15 45 -17 379 -19 203 -2 374 1 381 5 8 5 16 63 23 162 13 185 41 386
79 567 15 72 25 136 22 141 -3 5 -60 31 -126 57 -131 52 -249 108 -336 161
-31 19 -59 34 -63 34 -3 0 -19 -19 -36 -41z"/>
<path d="M6055 5213 c-88 -54 -418 -203 -451 -203 -23 0 -23 -14 2 -125 36
-167 72 -422 84 -594 5 -85 15 -160 21 -168 10 -11 78 -13 382 -11 335 3 371
5 380 20 26 41 -32 372 -101 583 -61 184 -190 462 -238 510 -20 20 -31 18 -79
-12z"/>
<path d="M2967 4918 c-44 -70 -134 -727 -107 -778 10 -20 23 -20 585 -20 560
0 575 0 585 20 7 12 9 128 8 332 l-3 313 -100 8 c-232 17 -439 40 -570 63
-122 22 -317 64 -367 80 -11 3 -22 -4 -31 -18z"/>
<path d="M2871 3881 c-43 -27 65 -776 114 -795 9 -3 61 5 118 19 233 55 541
98 787 111 69 4 133 11 143 16 16 8 17 34 17 323 0 301 -1 315 -19 325 -25 13
-1140 14 -1160 1z"/>
<path d="M4281 3876 c-8 -9 -11 -107 -9 -337 l3 -324 100 -7 c359 -27 599 -59
840 -113 111 -25 117 -25 130 -9 26 36 86 394 106 629 10 117 10 147 0 159
-12 14 -78 16 -586 16 -472 0 -575 -2 -584 -14z"/>
<path d="M5702 3878 c-5 -7 -13 -65 -16 -128 -10 -165 -41 -399 -78 -580 -17
-87 -28 -165 -25 -173 3 -8 27 -23 54 -32 114 -42 265 -110 356 -160 54 -30
104 -55 112 -55 23 0 53 48 135 215 84 171 134 307 175 475 49 205 69 412 43
438 -18 18 -741 17 -756 0z"/>
<path d="M3925 2983 c-121 -7 -308 -25 -405 -39 -174 -25 -454 -84 -469 -99
-12 -12 -10 -25 14 -92 134 -381 375 -732 617 -903 160 -113 344 -181 362
-134 3 9 6 294 6 634 0 602 -1 620 -19 630 -11 5 -28 9 -38 8 -10 -1 -40 -3
-68 -5z"/>
<path d="M4292 2978 c-16 -16 -17 -1230 -2 -1259 14 -26 44 -24 138 9 120 43
239 122 357 237 191 188 331 412 456 729 42 107 47 137 26 155 -33 26 -387 92
-622 115 -236 23 -340 27 -353 14z"/>
<path d="M2675 2736 c-106 -44 -308 -146 -317 -160 -4 -6 -8 -19 -8 -28 0 -25
218 -247 335 -341 193 -156 481 -325 531 -313 41 11 30 47 -50 158 -130 181
-214 338 -311 583 -61 153 -59 152 -180 101z"/>
</g>
</svg>
