<svg version="1.1" xmlns="http://www.w3.org/2000/svg" xmlns:xlink="http://www.w3.org/1999/xlink" x="0px" y="0px" viewBox="0 0 118.7 163.7" style="enable-background:new 0 0 118.7 163.7;" xml:space="preserve">
    <style type="text/css">
        .k8gb-logo-icon-background{fill:#fff;}
        .k8gb-logo-icon-foreground{fill:url(#linear-gradient);}
        .k8gb-logo-text{fill:#fff;}
    </style>
    <linearGradient id="linear-gradient" gradientTransform="rotate(60)">
        <stop offset="5%" stop-color="#F42D28" />
        <stop offset="95%" stop-color="#B1144B" />
        </linearGradient>
    <path class="k8gb-logo-icon-background" d="M58.1,0.3l-39.5,19c-0.8,0.4-1.4,1.1-1.5,2L7.4,63.9c-0.2,0.9,0,1.7,0.6,2.4l27.3,34.2c0.5,0.7,1.4,1.1,2.2,1.1
	h43.7c0.9,0,1.7-0.4,2.2-1.1l27.3-34.2c0.5-0.7,0.8-1.6,0.6-2.4l-9.7-42.7c-0.2-0.9-0.8-1.6-1.6-2l-39.4-19
	C59.8-0.1,58.9-0.1,58.1,0.3z" />
    <path id="Icon" class="k8gb-logo-icon-foreground" d="M61,39.9c-0.1-0.1-0.1-0.2-0.1-0.3V24.3c0-0.1,0.1-0.3,0.2-0.4c0.1-0.1,0.2-0.1,0.3-0.1h0.1
	c4.9,1.1,9.3,6.3,12,14c0,0.1,0,0.3,0,0.4c-0.1,0.1-0.2,0.2-0.3,0.2c-3.8,1-7.8,1.5-11.7,1.6l0,0C61.2,40,61.1,40,61,39.9z
	 M57.5,42.9c-4.2-0.1-8.5-0.7-12.6-1.8h-0.1c-0.1,0-0.2,0-0.2,0.1c-0.1,0.1-0.2,0.2-0.2,0.3c-0.7,3.1-1.2,6.2-1.3,9.3
	c0,0.2,0.2,0.5,0.4,0.5l0,0h13.9c0.3,0,0.5-0.2,0.5-0.5v-7.5C57.9,43.1,57.7,42.9,57.5,42.9L57.5,42.9z M57.5,23.9L57.5,23.9
	c-5,1.1-9.4,6.3-12.1,13.9c-0.1,0.1-0.1,0.3,0,0.4c0.1,0.1,0.2,0.2,0.3,0.2c3.9,1,7.8,1.5,11.8,1.6l0,0c0.3,0,0.5-0.2,0.5-0.5V24.3
	C57.9,24.1,57.7,23.9,57.5,23.9L57.5,23.9L57.5,23.9z M57.5,54.2h-14c-0.1,0-0.2,0.1-0.3,0.1c-0.1,0.1-0.1,0.2-0.1,0.3
	c0.1,3.1,0.5,6.2,1.3,9.3c0,0.1,0.1,0.2,0.2,0.3c0.1,0,0.2,0.1,0.2,0.1h0.1c4.1-1.1,8.3-1.6,12.6-1.8c0.3,0,0.5-0.2,0.5-0.5v-7.5
	C57.9,54.4,57.7,54.2,57.5,54.2L57.5,54.2z M42.6,68.5c-0.1-0.2-0.2-0.3-0.4-0.3c-0.1,0-0.1,0-0.2,0c-1.7,0.6-3.4,1.4-5,2.3
	c-0.1,0.1-0.2,0.2-0.2,0.3c0,0.1,0,0.3,0.1,0.4c2.8,3.4,6.4,6.1,10.4,8c0.1,0,0.1,0,0.2,0c0.1,0,0.3-0.1,0.4-0.2
	c0.1-0.2,0.1-0.4,0-0.6C45.5,75.5,43.7,72.1,42.6,68.5z M40.2,50.9c0.1-3.5,0.6-6.9,1.4-10.3c0.1-0.2-0.1-0.5-0.3-0.5
	c-2.1-0.7-4.1-1.6-6-2.8c-0.1,0-0.2-0.1-0.2-0.1c-0.2,0-0.3,0.1-0.4,0.2c-2.5,4-4,8.6-4.3,13.4c0,0.1,0,0.2,0.1,0.3s0.2,0.2,0.3,0.2
	h8.9C40,51.3,40.2,51.1,40.2,50.9z M57.5,65.5L57.5,65.5c-4,0.1-7.9,0.7-11.7,1.6c-0.1,0-0.2,0.1-0.3,0.2c0,0.1,0,0.3,0,0.4
	c2.6,7.6,7.1,12.8,12,13.9h0.1c0.1,0,0.2,0,0.3-0.1s0.2-0.2,0.2-0.4V66c0-0.1-0.1-0.2-0.1-0.3C57.8,65.5,57.6,65.5,57.5,65.5z
	 M73,67.1c-3.8-1-7.7-1.5-11.7-1.6l0,0c-0.1,0-0.2,0-0.3,0.1s-0.1,0.2-0.1,0.3v15.2c0,0.1,0.1,0.3,0.2,0.4c0.1,0.1,0.2,0.1,0.3,0.1
	h0.1c4.9-1.1,9.3-6.3,11.9-13.9C73.5,67.5,73.3,67.2,73,67.1C73.1,67.1,73.1,67.1,73,67.1L73,67.1z M77.2,40.6
	c0.8,3.4,1.3,6.8,1.4,10.3c0,0.3,0.2,0.5,0.5,0.5H88c0.1,0,0.3-0.1,0.3-0.2c0.1-0.1,0.1-0.2,0.1-0.3c-0.3-4.7-1.8-9.3-4.3-13.4
	c-0.1-0.1-0.2-0.2-0.4-0.2c-0.1,0-0.2,0-0.2,0.1c-1.9,1.1-3.9,2-6,2.8C77.3,40.1,77.1,40.4,77.2,40.6z M102.6,61.9
	c0.1,0.6,0,1.2-0.4,1.6l-23,28.8c-0.4,0.5-0.9,0.7-1.5,0.7H41c-0.6,0-1.1-0.3-1.5-0.7l-23-28.8c-0.4-0.5-0.5-1-0.4-1.6L24.3,26
	c0.1-0.6,0.5-1,1-1.3l33.2-16c0.5-0.3,1.1-0.3,1.6,0l33.2,16c0.5,0.3,0.9,0.7,1,1.3L102.6,61.9z M91.3,52.8c0-17.7-14.3-32-32-32
	s-32,14.3-32,32s14.3,32,32,32S91.3,70.4,91.3,52.8z M110.7,66.3l-27.2,34.2c-0.5,0.7-1.4,1.1-2.2,1.1H37.5c-0.9,0-1.7-0.4-2.2-1.1
	L8,66.3c-0.5-0.7-0.8-1.6-0.6-2.4l9.7-42.7c0.2-0.9,0.8-1.6,1.5-2l39.5-19c0.8-0.4,1.7-0.4,2.5,0l39.4,19c0.8,0.4,1.4,1.1,1.6,2
	l9.7,42.7C111.5,64.7,111.3,65.6,110.7,66.3L110.7,66.3z M105.9,61.2l-8.2-35.9c-0.4-1.6-1.4-2.9-2.9-3.6l-33.2-16
	C60.1,5,58.4,5,57,5.7l-33.2,16c-1.5,0.7-2.5,2-2.9,3.6l-8.2,35.9c-0.4,1.6,0,3.3,1,4.5l23,28.8c1,1.3,2.6,2,4.2,2h36.8
	c1.6,0,3.2-0.7,4.2-2l23-28.8C106,64.4,106.3,62.7,105.9,61.2L105.9,61.2z M75.2,54.2H61.3c-0.3,0-0.5,0.2-0.5,0.5v7.5
	c0,0.3,0.2,0.5,0.5,0.5c4.2,0.1,8.5,0.7,12.6,1.7H74c0.1,0,0.2,0,0.2-0.1c0.1-0.1,0.2-0.2,0.2-0.3c0.7-3.1,1.2-6.2,1.3-9.3
	c0-0.1,0-0.2-0.1-0.3C75.5,54.2,75.3,54.2,75.2,54.2z M82,34.7c0-0.1,0-0.3-0.1-0.4c-2.8-3.4-6.4-6.2-10.4-8c-0.1,0-0.1,0-0.2,0
	s-0.3,0.1-0.4,0.2c-0.1,0.2-0.1,0.4,0,0.6c2.3,3,4.1,6.4,5.3,10c0.1,0.2,0.2,0.3,0.4,0.3c0.1,0,0.1,0,0.2,0c1.7-0.6,3.4-1.4,5-2.3
	C81.9,35,82,34.8,82,34.7z M88,54.2h-9c-0.3,0-0.5,0.2-0.5,0.5c-0.1,3.5-0.6,6.9-1.4,10.3c-0.1,0.2,0.1,0.5,0.3,0.6
	c2.1,0.7,4.1,1.6,6,2.8c0.1,0,0.1,0.1,0.2,0.1c0.2,0,0.3-0.1,0.4-0.2c2.5-4,4-8.6,4.3-13.4c0-0.1,0-0.3-0.1-0.3
	C88.2,54.3,88.1,54.2,88,54.2L88,54.2z" />
    <path id="Text" class="k8gb-logo-text" d="M19.6,154.5L6,136.6v17.9H0V114h6v14.5L16.2,114h7.4l-3.7,4.7l-9.6,13.9l17.6,22L19.6,154.5z
	 M118.7,143.1c0,3.1-1.2,6.1-3.4,8.3c-1.1,1.1-2.3,1.9-3.7,2.5c-1.4,0.6-3,0.9-4.6,0.9h-7.6c-4,0-7.3-3.3-7.3-7.3v-26.2
	c0-4,3.3-7.3,7.3-7.3h6.8c3.1,0,6.1,1.2,8.3,3.4c1.1,1.1,1.9,2.3,2.5,3.7c0.6,1.5,0.9,3,0.9,4.6c0.1,3.1-1.1,6.2-3.4,8.3
	c1.2,1,2.2,2.2,2.9,3.6C118.3,139.3,118.8,141.2,118.7,143.1z M112.7,143.1c0-0.8-0.1-1.5-0.4-2.2s-0.7-1.3-1.2-1.8
	s-1.1-0.9-1.8-1.2c-0.8-0.3-1.7-0.5-2.6-0.4h-4.9v-6.1h4.4c0.7,0,1.5-0.1,2.2-0.4c1.3-0.6,2.4-1.7,3-3c0.3-0.7,0.4-1.4,0.4-2.2
	c0-0.8-0.1-1.5-0.4-2.2s-0.7-1.3-1.2-1.8s-1.1-0.9-1.8-1.2c-0.7-0.3-1.4-0.4-2.2-0.4h-4.6c-1.9,0-3.4,1.5-3.4,3.4l0,0v21.7
	c0,1.9,1.5,3.4,3.4,3.4h5.4c0.8,0,1.5-0.1,2.2-0.4c0.7-0.3,1.3-0.7,1.8-1.2s0.9-1.2,1.2-1.8C112.5,144.6,112.7,143.8,112.7,143.1z
	 M56.3,143.1c0,1.6-0.3,3.1-0.9,4.6c-1.2,2.8-3.4,5.1-6.2,6.3c-1.4,0.6-3,0.9-4.6,0.9h-7.1c-1.6,0-3.1-0.3-4.6-0.9
	c-2.8-1.2-5-3.4-6.2-6.2c-0.6-1.4-0.9-3-0.9-4.6c0-1.9,0.5-3.8,1.4-5.5c0.7-1.4,1.7-2.6,2.9-3.6c-2.3-2.1-3.6-5.2-3.4-8.3
	c0-1.6,0.3-3.1,0.9-4.6c0.6-1.4,1.4-2.6,2.5-3.7c2.2-2.2,5.2-3.5,8.3-3.4h5.4c3.1,0,6.1,1.2,8.3,3.4c1.1,1.1,1.9,2.3,2.5,3.7
	c0.6,1.5,0.9,3,0.9,4.6c0.1,3.1-1.2,6.2-3.4,8.3c1.2,1,2.1,2.2,2.9,3.6C55.9,139.3,56.4,141.2,56.3,143.1z M50.3,143.1
	c0-0.8-0.1-1.5-0.4-2.2c-0.3-0.7-0.7-1.3-1.2-1.8s-1.1-0.9-1.8-1.2c-0.8-0.3-1.7-0.5-2.6-0.4h-1.2v-6.1h0.8c0.7,0,1.5-0.1,2.2-0.4
	c1.3-0.6,2.4-1.7,3-3c0.6-1.4,0.6-3,0-4.4c-0.3-0.7-0.7-1.3-1.2-1.8s-1.1-0.9-1.8-1.2c-0.7-0.3-1.4-0.4-2.2-0.4h-5.5
	c-0.7,0-1.5,0.1-2.2,0.4s-1.3,0.7-1.8,1.2c-1.6,1.6-2.1,4.1-1.2,6.2c0.6,1.3,1.7,2.4,3,3c0.7,0.3,1.4,0.4,2.2,0.4h1v6.1l-1.4-0.1
	c-0.9,0-1.7,0.1-2.6,0.5c-0.7,0.3-1.3,0.7-1.8,1.2s-0.9,1.1-1.2,1.8c-0.6,1.4-0.6,3,0,4.4c0.3,0.7,0.7,1.3,1.2,1.8s1.1,0.9,1.8,1.2
	s1.4,0.4,2.2,0.4h7.1c0.8,0,1.5-0.1,2.2-0.4c0.7-0.3,1.3-0.7,1.8-1.2s0.9-1.2,1.2-1.8C50.1,144.6,50.3,143.8,50.3,143.1z
	 M74.2,140.2h8.5c0,1.1-0.3,2.2-0.7,3.2c-0.4,1.1-1.1,2-1.9,2.8s-1.8,1.4-2.8,1.9c-2.2,0.9-4.7,0.9-6.9,0c-1.1-0.4-2-1.1-2.8-1.9
	c-1.7-1.6-2.6-3.9-2.6-6.2v-11.7c0-1.2,0.2-2.4,0.7-3.4c0.9-2.1,2.6-3.8,4.8-4.8c1.1-0.5,2.3-0.7,3.4-0.7l0,0h0.7
	c1.4,0.1,2.8,0.6,3.9,1.4c1.4,1,2.6,2.2,3.4,3.8l0.1,0.2c0.4,1.1,0.7,2.3,0.7,3.5h6.1c0-2-0.4-4-1.2-5.8l0,0l-0.1-0.1
	c-1.6-3.5-4.4-6.3-7.9-7.8c-1.5-0.7-3.2-1-4.8-1.2l0,0c-0.3,0-0.7,0-1,0c-2,0-4,0.4-5.9,1.2c-3.6,1.5-6.5,4.4-8,8
	c-0.8,1.8-1.2,3.8-1.2,5.8V140c0,2,0.4,4,1.2,5.9c0.8,1.8,1.9,3.4,3.2,4.7c1.4,1.4,3,2.5,4.8,3.2c3.8,1.6,8,1.6,11.8,0
	c3.6-1.5,6.5-4.4,8-8c0.8-1.8,1.2-3.8,1.2-5.8v-6H74.2V140.2z M118.7,159.9H0v3.8h118.7V159.9z" />
</svg>
